<?xml version="1.0" encoding="UTF-8"?>
<svg version="1.1" xmlns="http://www.w3.org/2000/svg" width="200" height="200">
<path d="M0 0 C1.26392578 -0.01611328 2.52785156 -0.03222656 3.83007812 -0.04882812 C16.08024292 -0.05510061 27.45139144 2.01245417 38.6875 6.9375 C39.48865234 7.28377441 40.28980469 7.63004883 41.11523438 7.98681641 C53.40483485 13.4671151 63.63991728 20.78056905 73.1875 30.3125 C73.80882812 30.92222656 74.43015625 31.53195313 75.0703125 32.16015625 C83.79996135 41.39734283 89.95315217 52.93628653 94.6875 64.625 C95.01355225 65.42389648 95.33960449 66.22279297 95.67553711 67.04589844 C99.87942333 77.94179923 100.52931345 88.52273572 100.5 100.125 C100.51611328 101.38892578 100.53222656 102.65285156 100.54882812 103.95507812 C100.55510061 116.20524292 98.48754583 127.57639144 93.5625 138.8125 C93.21622559 139.61365234 92.86995117 140.41480469 92.51318359 141.24023438 C87.0328849 153.52983485 79.71943095 163.76491728 70.1875 173.3125 C69.57777344 173.93382812 68.96804687 174.55515625 68.33984375 175.1953125 C59.10265717 183.92496135 47.56371347 190.07815217 35.875 194.8125 C34.67665527 195.30157837 34.67665527 195.30157837 33.45410156 195.80053711 C22.55820077 200.00442333 11.97726428 200.65431345 0.375 200.625 C-0.88892578 200.64111328 -2.15285156 200.65722656 -3.45507812 200.67382812 C-15.70524292 200.68010061 -27.07639144 198.61254583 -38.3125 193.6875 C-39.11365234 193.34122559 -39.91480469 192.99495117 -40.74023438 192.63818359 C-53.02983485 187.1578849 -63.26491728 179.84443095 -72.8125 170.3125 C-73.43382813 169.70277344 -74.05515625 169.09304687 -74.6953125 168.46484375 C-83.42496135 159.22765717 -89.57815217 147.68871347 -94.3125 136 C-94.63855225 135.20110352 -94.96460449 134.40220703 -95.30053711 133.57910156 C-99.50442333 122.68320077 -100.15431345 112.10226428 -100.125 100.5 C-100.14111328 99.23607422 -100.15722656 97.97214844 -100.17382812 96.66992188 C-100.18010061 84.41975708 -98.11254583 73.04860856 -93.1875 61.8125 C-92.84122559 61.01134766 -92.49495117 60.21019531 -92.13818359 59.38476562 C-86.6578849 47.09516515 -79.34443095 36.86008272 -69.8125 27.3125 C-69.20277344 26.69117187 -68.59304687 26.06984375 -67.96484375 25.4296875 C-58.72765717 16.70003865 -47.18871347 10.54684783 -35.5 5.8125 C-34.70110352 5.48644775 -33.90220703 5.16039551 -33.07910156 4.82446289 C-22.18320077 0.62057667 -11.60226428 -0.02931345 0 0 Z " fill="#2700FD" transform="translate(99.8125,-0.3125)"/>
<path d="M0 0 C0.99 0.33 1.98 0.66 3 1 C5.14413223 1.09504628 7.2912677 1.12987226 9.4375 1.125 C10.57058594 1.12757812 11.70367187 1.13015625 12.87109375 1.1328125 C15.45221183 1.02325193 17.54944405 0.75864877 20 0 C20.37511719 0.79664062 20.75023438 1.59328125 21.13671875 2.4140625 C26.58282735 13.95498039 26.58282735 13.95498039 36.6328125 21.30078125 C43.07457871 23.20354718 49.72522938 23.0439813 55.8125 20.125 C62.97003394 15.55249193 67.12216252 7.78708965 70 0 C70.53625 0.16242188 71.0725 0.32484375 71.625 0.4921875 C74.46667646 1.0997828 77.09488707 1.13226278 80 1.125 C81.03125 1.12757812 82.0625 1.13015625 83.125 1.1328125 C86.22109651 1.08462782 86.22109651 1.08462782 90 0 C90 22.11 90 44.22 90 67 C83.4 67 76.8 67 70 67 C69.67 56.77 69.34 46.54 69 36 C65.7 37.65 62.4 39.3 59 41 C48.87692541 44.55384533 38.27306 44.19512252 28.3671875 40.16796875 C25.83692206 38.91953745 23.41941046 37.45164628 21 36 C20.67 46.23 20.34 56.46 20 67 C13.4 67 6.8 67 0 67 C0 44.89 0 22.78 0 0 Z " fill="#FCFCFF" transform="translate(55,80)"/>
<path d="M0 0 C3.02089981 1.7475743 5.41608883 3.83217766 7 7 C7.43032996 11.21226823 7.42629046 14.91059104 5.875 18.875 C3.0619932 22.06307437 0.34306084 23.84379594 -3.9921875 24.1328125 C-7.99896382 23.87577402 -9.73717172 23.21249946 -12.9375 20.625 C-15.89865187 16.85626126 -16.34643859 13.76251329 -16.28515625 9 C-15.82829681 5.79572554 -14.30378028 4.17579249 -12 2 C-8.49388086 -0.62958936 -4.21128045 -0.81639026 0 0 Z " fill="#F9F8FF" transform="translate(69,51)"/>
<path d="M0 0 C4.05902667 1.5611641 7.06099411 3.01426566 9 7 C9.53622663 12.54100846 9.28076839 16.29756531 6 21 C1.98387205 23.67741863 -1.20274224 24.69960009 -6 24 C-9.99540274 21.84862929 -12.31318009 20.20549621 -14 16 C-14.65528607 12.20623855 -14.86351149 8.5472585 -12.94921875 5.1171875 C-8.89266283 0.16316345 -6.27135847 -0.41809056 0 0 Z " fill="#F9F8FF" transform="translate(138,51)"/>
</svg>
