<svg version="1.1" viewBox="0 9.25 164 167.52777777777777" xmlns:xlink="http://www.w3.org/1999/xlink" xmlns="http://www.w3.org/2000/svg" style="max-height: 500px" width="164" height="167.52777777777777">
<defs>
<radialGradient gradientTransform="matrix(130.280903,188.73622,-754.011396,520.690845,4.492444,7.068804)" r="1" fy="0" fx="0" cy="0" cx="0" gradientUnits="userSpaceOnUse" id="radial0">
<stop style="stop-color:rgb(77.254902%,28.627451%,100%);stop-opacity:1;" offset="0.051483"/>
<stop style="stop-color:rgb(43.921569%,29.411765%,100%);stop-opacity:1;" offset="0.815643"/>
</radialGradient>
</defs>
<g id="surface1">
<path d="M 495.859375 58.550781 C 498.070312 55.652344 501.503906 53.953125 505.144531 53.953125 L 532.285156 53.953125 L 492.777344 102.21875 L 532.285156 150.5 L 505 150.5 C 501.347656 150.5 497.90625 148.789062 495.695312 145.878906 L 469.316406 111.101562 L 469.316406 150.5 L 448.636719 150.5 C 444.660156 150.5 441.441406 147.277344 441.441406 143.304688 L 441.441406 28.746094 C 441.441406 24.773438 444.660156 21.550781 448.636719 21.550781 L 469.316406 21.550781 L 469.316406 93.351562 Z M 388.828125 51.511719 C 377.625 51.511719 368.667969 56.503906 362.691406 63.527344 L 362.691406 53.953125 L 342.011719 53.953125 C 338.039062 53.953125 334.816406 57.175781 334.816406 61.148438 L 334.816406 143.304688 C 334.816406 147.277344 338.039062 150.5 342.011719 150.5 L 362.691406 150.5 L 362.691406 93.339844 C 362.691406 83.753906 369.488281 76.78125 379.421875 76.78125 C 389.527344 76.78125 394.753906 82.183594 394.753906 94.035156 L 394.753906 150.5 L 415.4375 150.5 C 419.410156 150.5 422.632812 147.277344 422.632812 143.304688 L 422.632812 86.019531 C 422.632812 64.410156 409.738281 51.511719 388.828125 51.511719 Z M 677.609375 58.78125 L 658.207031 114.511719 L 638.808594 58.78125 C 637.800781 55.890625 635.074219 53.953125 632.011719 53.953125 L 607.332031 53.953125 L 643.746094 147.886719 L 628.933594 183.351562 L 651.269531 183.351562 C 654.460938 183.351562 657.332031 181.402344 658.507812 178.433594 L 707.867188 53.953125 L 684.40625 53.953125 C 681.34375 53.953125 678.617188 55.890625 677.609375 58.78125 Z M 875.820312 127.496094 C 866.148438 127.496094 861.710938 123.058594 861.710938 113.382812 L 861.710938 76.957031 L 884.210938 76.957031 C 888.183594 76.957031 891.402344 73.734375 891.402344 69.761719 L 891.402344 53.953125 L 861.710938 53.953125 L 861.710938 25.503906 L 842.070312 25.503906 C 838.09375 25.503906 834.875 28.726562 834.875 32.699219 L 834.875 53.953125 L 828.308594 53.953125 C 824.332031 53.953125 821.109375 57.175781 821.109375 61.148438 L 821.109375 76.957031 L 834.703125 76.957031 L 834.703125 115.125 C 834.703125 138.234375 847.746094 150.5 869.109375 150.5 L 885.105469 150.5 C 889.082031 150.5 892.304688 147.277344 892.304688 143.304688 L 892.304688 127.496094 Z M 272.644531 73.46875 C 261.984375 73.46875 252.746094 81.140625 250.078125 91.929688 L 291.304688 91.929688 C 291.125 80.792969 283.128906 73.46875 272.644531 73.46875 Z M 223.425781 102.578125 C 223.425781 71.902344 245.457031 51.511719 272.824219 51.511719 C 297.878906 51.511719 318.3125 68.417969 318.3125 100.65625 C 318.3125 102.1875 318.277344 103.652344 318.195312 105.167969 C 318 108.707031 315.007812 111.480469 311.390625 111.480469 L 250.609375 111.480469 C 254.34375 123.835938 265.242188 127.496094 280.167969 127.496094 L 312.027344 127.496094 L 312.027344 143.304688 C 312.027344 147.277344 308.804688 150.5 304.832031 150.5 L 276.613281 150.5 C 241.964844 150.5 223.425781 131.851562 223.425781 102.578125 Z M 766.097656 127.835938 C 753.203125 127.835938 743.796875 117.203125 743.796875 102.21875 C 743.796875 87.230469 753.203125 76.601562 766.273438 76.601562 C 779.339844 76.601562 788.917969 87.230469 788.917969 102.046875 C 788.917969 116.855469 779.339844 127.835938 766.097656 127.835938 Z M 773.9375 51.507812 C 761.203125 51.507812 750.65625 57.617188 744.144531 66.246094 L 744.144531 53.949219 L 723.460938 53.949219 C 719.488281 53.949219 716.269531 57.167969 716.269531 61.144531 L 716.269531 176.140625 C 716.269531 180.117188 719.488281 183.335938 723.460938 183.335938 L 744.144531 183.335938 L 744.144531 136.375 C 750.070312 146.304688 761.914062 152.929688 774.460938 152.929688 C 797.109375 152.929688 817.148438 133.238281 817.148438 102.21875 C 817.148438 71.375 796.410156 51.507812 773.9375 51.507812 Z M 568.996094 64.410156 C 575.09375 57.527344 580.277344 52.589844 592.226562 52.589844 C 602.117188 52.589844 602.703125 57.175781 602.703125 61.148438 L 602.703125 76.761719 C 581.621094 73.492188 568.996094 80.085938 568.996094 98.210938 L 568.996094 150.5 L 548.3125 150.5 C 544.339844 150.5 541.117188 147.277344 541.117188 143.304688 L 541.117188 61.148438 C 541.117188 57.175781 544.339844 53.953125 548.3125 53.953125 L 568.996094 53.953125 Z M 568.996094 64.410156" style="stroke:none;fill-rule:evenodd;fill:rgb(40.784314%,29.803922%,100%);fill-opacity:1;"/>
<path d="M 0 42.710938 C 0 25.507812 13.945312 11.5625 31.144531 11.5625 L 161.84375 11.5625 L 161.84375 35.464844 C 161.84375 47.828125 151.820312 57.851562 139.457031 57.851562 L 78.007812 57.851562 C 60.808594 57.851562 46.867188 71.796875 46.867188 89.003906 L 46.867188 96.929688 C 46.867188 114.132812 60.808594 128.078125 78.007812 128.078125 L 139.457031 128.078125 C 151.820312 128.078125 161.84375 138.101562 161.84375 150.46875 L 161.84375 173.4375 L 31.144531 173.4375 C 13.945312 173.4375 0 159.492188 0 142.289062 Z M 79.351562 70.878906 L 142.378906 70.878906 C 153.128906 70.878906 161.84375 79.597656 161.84375 90.347656 L 161.84375 95.585938 C 161.84375 106.335938 153.128906 115.054688 142.378906 115.054688 L 79.351562 115.054688 C 68.601562 115.054688 59.886719 106.335938 59.886719 95.585938 L 59.886719 90.347656 C 59.886719 79.597656 68.601562 70.878906 79.351562 70.878906 Z M 79.351562 70.878906" style="stroke:none;fill-rule:evenodd;fill:url(#radial0);"/>
</g>
</svg>