<svg viewBox="0 0 74 32" fill="none"
  xmlns="http://www.w3.org/2000/svg">
  <path d="M73.1478 4.79323L44.5378 8.57C44.3745 8.59153 44.2225 8.66637 44.1061 8.78324L41.751 11.135C41.4581 11.4282 40.9846 11.4282 40.6907 11.135L40.2785 10.7229C39.9826 10.4276 39.9826 9.94682 40.2785 9.65157L43.0898 6.84462C43.3857 6.54937 43.3857 6.06856 43.0898 5.77331L37.5294 0.219901C37.2366 -0.0733004 36.7631 -0.0733004 36.4692 0.219901L30.9088 5.77331C30.6129 6.06856 30.6129 6.54937 30.9088 6.84462L33.7201 9.65157C34.0161 9.94682 34.0161 10.4276 33.7201 10.7229L33.3079 11.135C33.015 11.4282 32.5415 11.4282 32.2477 11.135L29.8925 8.78324C29.7751 8.66637 29.6241 8.59153 29.4608 8.57L0.851889 4.79323C0.138604 4.69892 -0.285899 5.56827 0.224319 6.07779L6.46327 12.3088C6.93879 12.7835 6.60409 13.5995 5.93366 13.5995C5.26323 13.5995 4.92853 14.4156 5.40405 14.8902L11.2522 20.7307C11.3481 20.826 11.4685 20.8947 11.5991 20.9275L31.5058 25.9407C31.667 25.9817 31.8109 26.075 31.914 26.2062L34.9936 30.1367C35.5426 30.8984 36.4702 31.7801 36.4702 31.7801C36.7631 32.0733 37.2366 32.0733 37.5305 31.7801C37.5305 31.7801 38.2978 31.001 39.007 30.1367L42.0867 26.2062C42.1898 26.075 42.3326 25.9817 42.4949 25.9407L62.4016 20.9275C62.5332 20.8947 62.6526 20.826 62.7485 20.7307L68.5966 14.8902C69.0721 14.4156 68.7374 13.5995 68.067 13.5995C67.3966 13.5995 67.0619 12.7835 67.5374 12.3088L73.7764 6.07779C74.2856 5.56827 73.8611 4.69994 73.1478 4.79323Z" fill="#EE0077"/>
</svg>
