<?xml version="1.0" standalone="no"?>
<!DOCTYPE svg PUBLIC "-//W3C//DTD SVG 20010904//EN"
 "http://www.w3.org/TR/2001/REC-SVG-20010904/DTD/svg10.dtd">
<svg version="1.0" xmlns="http://www.w3.org/2000/svg"
 width="1210.000000pt" height="1210.000000pt" viewBox="0 0 1210.000000 1210.000000"
 preserveAspectRatio="xMidYMid meet">
<metadata>
Created by potrace 1.14, written by Peter Selinger 2001-2017
</metadata>
<g transform="translate(0.000000,1210.000000) scale(0.100000,-0.100000)"
fill="#000000" stroke="none">
<path d="M5690 12090 c-1347 -88 -2557 -578 -3587 -1455 -165 -140 -498 -474
-638 -639 -792 -929 -1272 -2015 -1419 -3206 -32 -260 -40 -405 -40 -740 0
-506 43 -899 149 -1362 442 -1927 1824 -3532 3670 -4263 1014 -401 2128 -519
3222 -340 637 104 1286 325 1853 630 1267 683 2243 1776 2770 3100 724 1821
519 3894 -548 5530 -921 1414 -2384 2380 -4034 2664 -188 33 -356 55 -543 71
-163 15 -689 21 -855 10z m-2036 -3085 c589 -69 1084 -290 1400 -626 177 -188
278 -378 331 -619 24 -113 31 -390 11 -515 -39 -257 -136 -470 -314 -688 -317
-390 -958 -715 -1766 -897 -177 -40 -429 -84 -551 -97 l-70 -8 -5 -1220 -5
-1220 -27 -51 c-50 -94 -131 -143 -238 -144 -47 0 -79 7 -115 24 -60 28 -127
99 -143 154 -9 30 -12 580 -12 2229 0 2413 -5 2240 62 2366 84 157 237 259
421 282 l57 7 0 -1121 0 -1121 23 4 c726 156 1253 400 1616 751 346 334 494
661 494 1090 0 357 -94 607 -307 821 -283 282 -711 428 -1206 411 -507 -18
-929 -151 -1420 -447 -121 -73 -196 -110 -226 -110 -59 0 -226 116 -259 181
-32 61 -51 49 345 216 462 195 887 314 1250 352 145 15 513 12 654 -4z m3416
-212 c59 -233 87 -298 156 -366 68 -67 121 -89 368 -154 154 -40 213 -59 200
-65 -10 -4 -101 -28 -201 -53 -243 -60 -282 -76 -352 -140 -85 -79 -112 -138
-170 -375 -28 -113 -55 -214 -59 -224 -6 -14 -12 1 -21 55 -8 41 -36 150 -63
243 -92 317 -107 330 -474 432 -131 36 -240 67 -241 68 -2 2 95 28 215 59 242
64 301 88 367 153 64 62 95 135 156 372 29 111 56 202 59 202 4 0 31 -93 60
-207z m1970 -393 c106 -543 161 -756 301 -1167 110 -322 173 -442 306 -584
127 -134 265 -217 472 -284 144 -46 697 -203 1168 -331 199 -54 359 -102 355
-105 -4 -3 -95 -25 -202 -48 -711 -155 -1114 -260 -1340 -351 -354 -141 -609
-407 -730 -760 -33 -96 -144 -543 -265 -1065 -59 -253 -114 -471 -123 -485
-15 -24 -16 -21 -39 105 -48 270 -75 395 -119 560 -125 470 -278 971 -330
1080 -119 254 -312 434 -561 524 -119 44 -466 137 -1085 292 -309 77 -569 144
-579 150 -33 17 -21 25 54 38 175 31 1318 324 1504 386 196 65 339 153 470
288 196 202 244 317 417 1012 88 350 256 1048 256 1060 0 31 15 -38 70 -315z
m-2803 -4168 c36 -77 123 -166 196 -202 35 -16 177 -60 321 -98 l258 -68 -253
-64 c-170 -43 -276 -75 -321 -97 -80 -41 -164 -127 -203 -210 -16 -32 -56
-170 -91 -306 -34 -137 -64 -251 -66 -253 -2 -2 -10 31 -17 73 -18 110 -128
479 -159 536 -31 59 -94 118 -159 151 -37 18 -370 116 -577 170 -5 1 101 30
235 65 286 74 348 100 430 178 81 77 105 133 178 413 34 129 64 242 67 250 4
8 35 -97 71 -235 35 -137 76 -273 90 -303z"/>
</g>
</svg>
