<?xml version="1.0" encoding="utf-8"?>
<svg viewBox="0 0 64 64" fill="none" xmlns="http://www.w3.org/2000/svg" preserveAspectRatio="none"><g clip-path="url(#clip0_1_75)"><circle style="stroke: rgba(0, 0, 0, 0); fill: rgb(21, 27, 35);" transform="matrix(0.895143, 0, 0, 0.892383, -446.487671, -801.256226)" cx="534.5" cy="933.75" r="31.411"/><path fill-rule="evenodd" clip-rule="evenodd" d="M32 60C47.464 60 60 47.464 60 32C60 16.536 47.464 4 32 4C16.536 4 4 16.536 4 32C4 47.464 16.536 60 32 60ZM32 64C49.6731 64 64 49.6731 64 32C64 14.3269 49.6731 0 32 0C14.3269 0 0 14.3269 0 32C0 49.6731 14.3269 64 32 64Z" fill="#D6E4E3"/><path fill-rule="evenodd" clip-rule="evenodd" d="M10.9312 33.3736C15.0664 36.9129 21.4858 40.2513 29.2328 42.3271C36.9798 44.4029 44.2083 44.7215 49.5592 43.724C55.229 42.667 57.3855 40.4913 57.8078 38.9152C58.2302 37.3391 57.4504 34.3767 53.0686 30.6263C48.9334 27.087 42.514 23.7487 34.767 21.6729C27.0201 19.5971 19.7915 19.2785 14.4407 20.276C8.77079 21.333 6.61433 23.5087 6.192 25.0848C5.76968 26.6609 6.54941 29.6233 10.9312 33.3736ZM2.3283 24.0495C0.22829 31.8869 11.8103 41.7998 28.1975 46.1908C44.5847 50.5817 59.5715 47.7878 61.6715 39.9505C63.7715 32.1131 52.1895 22.2002 35.8023 17.8092C19.4151 13.4183 4.42831 16.2122 2.3283 24.0495Z" fill="#D6E4E3"/><path d="M46.1421 26.3432C43.799 28.6864 40 28.6864 37.6568 26.3432C35.3137 24.0001 35.3137 20.2011 37.6568 17.8579C40 15.5148 43.799 15.5148 46.1421 17.8579C48.4853 20.2011 48.4853 24.0001 46.1421 26.3432Z" fill="#D6E4E3"/><path d="M22.8076 44.0209C20.4644 46.364 16.6654 46.364 14.3223 44.0209C11.9792 41.6777 11.9792 37.8788 14.3223 35.5356C16.6654 33.1925 20.4644 33.1925 22.8076 35.5356C25.1507 37.8788 25.1507 41.6777 22.8076 44.0209Z" fill="#D6E4E3"/></g><defs><clipPath id="clip0_1_75"><rect width="64" height="64" fill="white"/></clipPath></defs></svg>